<svg xmlns="http://www.w3.org/2000/svg" version="1.1" xmlns:xlink="http://www.w3.org/1999/xlink" xmlns:svgjs="http://svgjs.dev/svgjs" width="512" height="512"><svg xmlns="http://www.w3.org/2000/svg" xmlns:xlink="http://www.w3.org/1999/xlink" width="512" height="512">
	<path fill="white" d="M30.8782 16.0899C40.8596 15.7064 50.947 15.9837 60.9407 15.9858L114.817 15.9889L279.866 15.9896L413.914 15.9902L457.273 15.9894C464.922 15.9875 472.707 15.6421 480.335 16.0771C483.629 16.265 486.675 17.222 489.331 19.2127C492.836 21.8404 495.254 25.5506 495.8 29.9468C496.489 35.4924 496.025 41.5391 496.023 47.1368L496.011 80.2615L496.011 192.331L496.014 384.121L496.019 447.066C496.02 457.768 496.415 468.648 495.973 479.336C495.812 483.221 494.998 486.548 492.561 489.646C489.702 493.279 485.881 495.372 481.323 495.955C472.968 496.398 464.448 496.083 456.075 496.084L410.224 496.086L269.119 496.084L111.377 496.082L60.3499 496.087C50.9505 496.094 41.4448 496.402 32.0556 496.002C28.7596 495.861 25.953 495.168 23.2316 493.25C19.5211 490.633 16.9874 487.138 16.2592 482.6C15.5045 477.897 15.9966 472.445 16.001 467.653L16.0129 439.136L16.0129 335.373L16.0111 133.117L16.0051 66.8473C16.001 55.445 15.6111 43.8878 16.0498 32.5022C16.1966 28.6931 17.024 25.405 19.3728 22.3405C22.3445 18.4632 26.1238 16.7172 30.8782 16.0899ZM191.174 166.609C186.625 166.973 183.026 168.172 180.006 171.729C177.795 174.334 176.585 177.348 176.214 180.724C175.883 183.734 175.999 186.841 176 189.867L176.005 204.098L176.016 249.611L176.005 303.531L176.007 320.61C176.008 324.065 175.863 327.583 176.166 331.024Q176.237 331.833 176.388 332.63Q176.538 333.428 176.766 334.207Q176.994 334.986 177.298 335.739Q177.601 336.492 177.977 337.212Q178.353 337.931 178.798 338.61Q179.243 339.29 179.752 339.922Q180.262 340.554 180.831 341.133Q181.4 341.712 182.023 342.232C185.203 344.913 189.483 345.911 193.568 345.53C195.782 345.324 197.846 344.63 199.838 343.661C203.206 342.022 206.436 339.975 209.678 338.095L226.38 328.432C242.89 318.942 259.514 309.597 275.897 299.892C287.606 293.425 299.119 286.541 310.712 279.863C316.379 276.599 326.108 271.73 330.715 267.732C332.778 265.942 334.563 263.13 335.279 260.518C336.431 256.31 335.917 251.524 333.689 247.755C332.117 245.096 329.814 243.346 327.267 241.688C319.728 236.781 311.492 232.558 303.694 228.045L252.865 198.761L216.724 177.934C212.4 175.435 201.051 168.136 196.804 167.096C194.982 166.65 193.044 166.55 191.174 166.609ZM48.057 303.953C47.8799 314.617 48.122 325.286 48.0081 335.95L70.0418 336.011C72.3897 336.013 77.7537 336.448 79.8055 335.812L79.9339 335.674C80.1435 325.174 79.7926 314.659 80.0581 304.163Q69.4838 304.038 58.9089 304.106C55.4045 304.115 51.5071 304.504 48.057 303.953ZM48.0569 175.953C47.8848 186.617 48.122 197.286 48.0081 207.95L70.0417 208.011C72.3898 208.013 77.7535 208.448 79.8055 207.812L79.9339 207.674C80.1436 197.174 79.7924 186.659 80.0581 176.163Q69.4568 176.034 58.855 176.105C55.3663 176.116 51.4915 176.502 48.0569 175.953ZM432.057 47.9531C431.885 58.6176 432.122 69.2861 432.008 79.9503L454.091 80.0104C456.43 80.0131 461.765 80.445 463.805 79.8117L463.933 79.6741C464.146 69.1737 463.799 58.6595 464.058 48.163Q453.457 48.0346 442.855 48.1054C439.366 48.1155 435.491 48.5023 432.057 47.9531ZM432.057 239.953C431.885 250.618 432.122 261.286 432.008 271.95L454.091 272.01C456.43 272.013 461.764 272.445 463.805 271.812L463.933 271.674C464.147 261.174 463.799 250.66 464.058 240.163Q453.484 240.038 442.909 240.106C439.405 240.115 435.507 240.505 432.057 239.953ZM432.057 175.953C431.885 186.617 432.122 197.286 432.008 207.95L454.04 208.01C456.386 208.013 461.757 208.447 463.805 207.812L463.933 207.674C464.146 197.174 463.799 186.66 464.058 176.163Q453.457 176.035 442.855 176.106C439.366 176.116 435.492 176.502 432.057 175.953ZM432.057 431.953C431.885 442.617 432.122 453.286 432.008 463.95L454.041 464.011C456.388 464.013 461.755 464.448 463.805 463.812L463.934 463.674C464.145 453.174 463.792 442.659 464.058 432.163Q453.457 432.035 442.855 432.106C439.366 432.116 435.491 432.502 432.057 431.953ZM48.0569 367.954C47.8845 378.618 48.122 389.286 48.0081 399.95L70.093 400.011C72.434 400.013 77.7618 400.445 79.8055 399.812L79.9339 399.674C80.1434 389.174 79.7929 378.659 80.0581 368.163Q69.4568 368.035 58.855 368.105C55.3658 368.115 51.4923 368.501 48.0569 367.954ZM48.0569 239.953C47.8849 250.617 48.122 261.286 48.0081 271.95L70.0415 272.011C72.3894 272.013 77.7538 272.448 79.8054 271.812L79.9338 271.674C80.1437 261.174 79.7927 250.659 80.0581 240.164Q69.5529 240.038 59.047 240.105C55.4991 240.114 51.549 240.512 48.0569 239.953ZM48.0569 431.953C47.8848 442.618 48.1218 453.286 48.0081 463.95L70.093 464.011C72.4341 464.013 77.7617 464.445 79.8055 463.812L79.9339 463.674C80.1433 453.174 79.7945 442.659 80.0577 432.163Q69.6254 432.036 59.1926 432.105C55.6034 432.116 51.5901 432.518 48.0569 431.953ZM432.057 367.952C431.885 378.617 432.122 389.285 432.008 399.95L454.04 400.01C456.386 400.013 461.756 400.447 463.805 399.812L463.933 399.674C464.147 389.174 463.798 378.659 464.058 368.163Q453.457 368.035 442.855 368.106C439.367 368.116 435.49 368.504 432.057 367.952ZM48.0569 111.952C47.8849 122.617 48.122 133.285 48.0081 143.95L70.0417 144.011C72.3896 144.013 77.7537 144.448 79.8055 143.812L79.9339 143.674C80.1435 133.174 79.7948 122.659 80.0577 112.163Q69.5936 112.036 59.129 112.105C55.5594 112.116 51.5701 112.516 48.0569 111.952ZM432.057 303.952C431.885 314.617 432.122 325.286 432.008 335.95L454.091 336.01C456.43 336.013 461.764 336.445 463.805 335.812L463.933 335.674C464.146 325.174 463.792 314.659 464.058 304.163Q453.457 304.035 442.855 304.106C439.367 304.116 435.49 304.504 432.057 303.952ZM48.0569 47.9531C47.8846 58.6174 48.122 69.2857 48.0081 79.9497L70.0396 80.0102C72.3854 80.0129 77.7566 80.4474 79.805 79.8117L79.9327 79.6741C80.1504 69.174 79.7922 58.6589 80.0581 48.163Q69.4568 48.0349 58.855 48.1055C55.3664 48.1155 51.4913 48.5023 48.0569 47.9531ZM432.057 111.953C431.885 122.617 432.122 133.286 432.008 143.95L454.04 144.01C456.386 144.013 461.757 144.447 463.805 143.812L463.933 143.674C464.146 133.174 463.799 122.659 464.058 112.163Q453.457 112.035 442.855 112.106C439.366 112.116 435.491 112.502 432.057 111.953Z"></path>
</svg><style>@media (prefers-color-scheme: light) { :root { filter: none; } }
@media (prefers-color-scheme: dark) { :root { filter: none; } }
</style></svg>