<svg xmlns="http://www.w3.org/2000/svg" version="1.1" xmlns:xlink="http://www.w3.org/1999/xlink" xmlns:svgjs="http://svgjs.dev/svgjs" width="512" height="512"><svg xmlns="http://www.w3.org/2000/svg" xmlns:xlink="http://www.w3.org/1999/xlink" width="512" height="512">
	<path d="M55.3493 84.0923C63.4499 83.5603 71.8232 83.9836 79.9597 83.9856L126.546 83.9901L272.049 83.9901L396.921 83.9902L435.985 83.9873C443.149 83.9816 450.539 83.5817 457.669 84.1952C464.66 84.7966 470.839 86.9175 476.245 91.5046C483.859 97.9658 487.171 105.695 487.889 115.498C488.339 121.645 488.025 128.01 488.018 134.178L488.009 168.438L488.015 276.918L488.022 358.602L488.021 383.1C488.02 388.291 488.276 393.632 487.699 398.792C486.9 405.93 484.568 411.495 479.836 416.922C473.807 423.837 466.03 427.373 456.949 427.959C446.379 428.29 435.754 428.084 425.178 428.084L370.664 428.083L204.496 428.082L103.544 428.081L73.0108 428.091C66.5648 428.102 59.9669 428.412 53.5517 427.79C46.843 427.14 41.2904 425.046 36.0375 420.783C29.061 415.121 25.1631 407.617 24.2961 398.752C23.7185 392.847 23.9956 386.755 24.0022 380.821L24.015 351.924L24.0108 256.908L24.0015 160.923L24.0016 131.229C24.0021 125.413 23.7052 119.419 24.2684 113.634C24.94 106.735 27.1071 100.912 31.5735 95.5543C37.9303 87.9294 45.7256 84.9591 55.3493 84.0923ZM223.48 207.855C220.285 207.961 217.143 208.559 214.872 211.037C212.995 213.086 211.916 215.358 211.487 218.1C210.923 221.705 211.209 225.597 211.208 229.248L211.201 247.494L211.198 276.677C211.199 281.888 210.966 287.227 211.304 292.425C211.523 295.796 212.737 299.033 215.299 301.344C217.575 303.397 220.889 304.524 223.945 304.292C225.403 304.182 226.736 303.771 228.061 303.172C232.824 301.021 237.432 297.984 241.974 295.374C249.593 290.997 257.275 286.706 264.846 282.248L282.97 271.88C286.6 269.809 290.74 267.871 293.886 265.097C295.754 263.449 297.36 261.44 297.957 258.973Q298.107 258.376 298.196 257.767Q298.285 257.158 298.311 256.543Q298.337 255.928 298.301 255.314Q298.265 254.699 298.166 254.091Q298.067 253.484 297.907 252.89Q297.747 252.295 297.528 251.72Q297.308 251.145 297.031 250.595Q296.754 250.046 296.423 249.527C295.161 247.579 293.178 246.168 291.264 244.91C287.892 242.694 284.239 240.794 280.733 238.79L261.964 228.047L240.605 215.8C236.742 213.585 232.905 211.194 228.935 209.181Q227.356 208.378 225.614 208.058C224.904 207.927 224.201 207.855 223.48 207.855ZM428.057 187.953C427.767 206.614 428.209 225.288 428.008 243.95L453.48 244.008C456.299 244.01 461.174 244.466 463.776 243.838L463.934 243.674C464.302 225.178 463.67 206.657 464.058 188.163Q452.029 188.03 440 188.102C436.148 188.111 431.84 188.56 428.057 187.953ZM428.057 267.953C427.767 286.614 428.209 305.289 428.008 323.95L453.48 324.008C456.299 324.01 461.174 324.466 463.776 323.838L463.934 323.674C464.301 305.178 463.671 286.657 464.058 268.163Q451.911 268.029 439.764 268.103C435.986 268.112 431.77 268.546 428.057 267.953ZM48.057 267.952C47.7672 286.613 48.2087 305.288 48.0081 323.95L73.4781 324.008C76.2964 324.01 81.1747 324.466 83.7757 323.838L83.9328 323.674C84.3045 305.178 83.678 286.657 84.0577 268.163Q71.9601 268.03 59.8619 268.103C56.054 268.112 51.7969 268.554 48.057 267.952ZM48.0569 187.953C47.7678 206.614 48.209 225.288 48.0081 243.95L73.4367 244.008C76.2997 244.01 81.1522 244.471 83.7757 243.838L83.9328 243.674C84.3049 225.179 83.8071 206.662 84.0577 188.163Q72.044 188.03 60.0298 188.102C56.1676 188.111 51.8502 188.56 48.0569 187.953ZM57.9329 108.119C55.39 108.331 51.8837 108.469 50.1009 110.564C48.9251 111.946 48.388 114.482 48.1767 116.278C47.5947 121.226 47.9944 126.618 47.9959 131.612C47.999 142.387 48.1335 153.177 48.0081 163.95L74.625 163.989C77.7348 163.986 80.849 164.019 83.9582 163.978C84.0885 145.387 83.6309 126.743 84.0577 108.163C75.3758 108.076 66.606 107.815 57.9329 108.119ZM48.0569 347.953Q47.9372 363.582 48.0201 379.21C48.0228 384.771 47.5009 390.802 48.1998 396.304C48.4109 397.966 48.8763 400.086 50.0408 401.358C52.207 403.722 56.4918 404.012 59.5121 404.023C62.5009 404.034 83.3494 404.205 83.9327 403.674C84.3117 385.179 83.6697 366.657 84.0581 348.163Q71.9602 348.03 59.8619 348.103C56.0524 348.112 51.7995 348.551 48.0569 347.953ZM428.057 107.954C427.768 126.614 428.209 145.289 428.008 163.95L451.697 163.996C455.767 163.995 459.897 164.137 463.96 163.958L464.027 132.822C464.029 127.475 464.437 121.782 463.813 116.474C463.554 114.278 463.035 112.2 461.856 110.303C460.509 109.549 459.288 108.958 457.762 108.617C452.142 107.361 440.873 108.08 434.744 108.13C432.534 108.148 430.243 108.306 428.057 107.954ZM428.057 347.953C427.768 366.614 428.209 385.289 428.008 403.95L445.392 404.013C449.021 404.023 452.943 404.319 456.518 403.704C458.386 403.383 460.3 402.742 461.801 401.547C463.064 399.651 463.532 397.787 463.811 395.559C464.409 390.796 464.024 385.63 464.022 380.815C464.018 369.946 463.788 359.026 464.058 348.163Q451.911 348.029 439.764 348.103C435.986 348.112 431.769 348.547 428.057 347.953Z"></path>
</svg><style>@media (prefers-color-scheme: light) { :root { filter: none; } }
@media (prefers-color-scheme: dark) { :root { filter: none; } }
</style></svg>